<?xml version="1.0" standalone="no"?>
<!DOCTYPE svg PUBLIC "-//W3C//DTD SVG 20010904//EN"
 "http://www.w3.org/TR/2001/REC-SVG-20010904/DTD/svg10.dtd">
<svg version="1.0" xmlns="http://www.w3.org/2000/svg"
 width="356.000000pt" height="356.000000pt" viewBox="0 0 356.000000 356.000000"
 preserveAspectRatio="xMidYMid meet">
<metadata>
Created by potrace 1.11, written by Peter Selinger 2001-2013
</metadata>
<g transform="translate(0.000000,356.000000) scale(0.100000,-0.100000)"
fill="#000000" stroke="none">
<path d="M1647 3244 c-4 -4 -22 -9 -40 -11 -33 -2 -82 -10 -82 -13 0 -1 -9 -3
-20 -4 -11 -2 -36 -7 -55 -11 -19 -5 -37 -9 -40 -10 -32 -6 -110 -39 -110 -46
0 -5 -3 -8 -7 -8 -15 3 -73 -23 -73 -32 0 -5 -7 -9 -15 -9 -8 0 -15 -4 -15
-10 0 -5 -6 -10 -12 -10 -17 0 -82 -96 -74 -109 4 -5 2 -12 -3 -15 -11 -7 5
-94 21 -115 62 -78 102 -102 193 -115 11 -2 20 -4 20 -6 0 -11 433 -21 441 -9
2 3 24 3 49 -1 25 -4 45 -4 45 0 0 3 10 7 23 8 203 13 185 11 255 31 23 6 47
9 52 6 6 -3 10 -1 10 4 0 6 6 11 13 11 7 0 29 9 49 19 19 11 39 17 42 14 3 -4
6 0 6 8 0 8 9 20 20 27 12 7 18 17 15 22 -3 6 -2 10 3 10 16 0 37 76 23 85 -5
3 -7 14 -4 24 12 48 -61 142 -139 177 -24 10 -46 23 -50 29 -4 5 -8 7 -8 3 0
-4 -17 -2 -37 6 -21 8 -51 18 -68 22 -16 4 -37 9 -45 11 -8 2 -40 5 -70 8 -30
2 -55 5 -55 6 0 6 -162 4 -172 -3 -6 -5 -14 -5 -17 1 -4 7 -15 7 -31 1 -15 -6
-25 -5 -27 1 -2 6 -7 7 -11 3z m231 -150 c76 -4 137 -10 137 -14 0 -1 11 -3
25 -6 14 -2 36 -7 50 -11 14 -3 28 -6 33 -5 4 1 7 -3 7 -10 0 -6 3 -9 6 -5 12
12 92 -52 89 -70 -2 -10 -4 -24 -4 -30 -1 -7 -8 -13 -16 -13 -8 0 -15 -4 -15
-10 0 -5 -7 -10 -15 -10 -8 0 -15 -4 -15 -10 0 -5 -3 -9 -7 -8 -5 1 -33 -6
-63 -16 -57 -18 -60 -19 -145 -31 -78 -12 -89 -12 -102 -2 -7 5 -13 6 -13 1 0
-5 -41 -9 -90 -9 -50 0 -90 3 -90 8 0 4 -5 5 -12 1 -14 -9 -88 -12 -88 -4 0 3
-15 5 -32 5 -18 -1 -58 3 -88 8 -30 5 -61 9 -67 10 -7 0 -13 4 -13 8 0 4 -9 5
-20 2 -11 -3 -20 0 -20 6 0 6 -9 11 -20 11 -11 0 -21 3 -21 8 -7 39 -5 60 9
75 8 9 11 17 6 17 -24 1 93 57 132 65 16 2 40 7 54 10 69 15 173 27 247 29 35
0 63 5 63 9 0 5 5 5 11 2 5 -4 45 -9 87 -11z"/>
<path d="M1724 2689 c-9 -3 -29 -4 -45 -3 -16 1 -29 -3 -29 -9 0 -7 -5 -5 -10
3 -5 8 -10 10 -10 4 0 -6 -14 -11 -32 -12 -17 0 -35 -7 -39 -14 -7 -10 -9 -10
-9 0 0 10 -5 10 -21 2 -11 -7 -26 -9 -34 -7 -7 3 -18 0 -24 -6 -7 -7 -17 -12
-24 -13 -7 0 -20 -2 -30 -2 -10 -1 -15 -6 -12 -12 3 -6 -1 -7 -10 -4 -8 4 -22
1 -30 -6 -8 -7 -15 -9 -15 -5 0 4 -7 1 -16 -6 -9 -7 -23 -14 -32 -15 -8 -2
-18 -6 -21 -11 -3 -4 -13 -9 -21 -11 -8 -2 -17 -8 -18 -13 -2 -5 -7 -7 -12 -4
-5 3 -14 -1 -22 -8 -7 -7 -25 -18 -40 -24 -16 -7 -28 -17 -28 -23 0 -6 -4 -9
-8 -6 -5 3 -24 -8 -43 -25 -19 -16 -37 -29 -40 -29 -3 0 -16 -8 -27 -19 -19
-15 -27 -16 -57 -7 -19 6 -35 14 -35 18 0 5 -5 8 -11 8 -6 0 -24 9 -40 21 -16
11 -34 17 -40 13 -7 -4 -9 -3 -6 3 7 11 -137 79 -194 92 -22 5 -41 5 -44 0 -3
-4 -12 -6 -20 -2 -8 3 -15 0 -15 -6 0 -6 -3 -10 -7 -9 -22 7 -56 -33 -92 -113
-14 -29 -18 -142 -6 -179 14 -48 37 -90 46 -84 5 3 9 -2 9 -11 0 -9 11 -27 25
-41 14 -14 25 -23 25 -20 0 2 14 -9 31 -25 17 -16 35 -26 40 -23 5 3 9 1 9 -3
0 -5 14 -14 30 -20 29 -11 42 -45 21 -57 -5 -4 -8 -17 -6 -31 1 -14 -1 -25 -5
-25 -10 0 -30 -82 -23 -93 3 -6 1 -7 -5 -3 -8 4 -12 -1 -13 -13 -2 -28 -3 -34
-10 -46 -3 -5 -5 -17 -4 -25 0 -8 -3 -17 -7 -20 -4 -3 -8 -21 -10 -39 -1 -18
-6 -35 -10 -37 -4 -2 -5 -13 -3 -24 2 -11 0 -22 -5 -25 -5 -3 -7 -12 -3 -20 3
-8 1 -15 -4 -15 -5 0 -9 -10 -10 -22 0 -13 -4 -39 -8 -58 -12 -61 -13 -80 -1
-80 7 0 6 -3 -2 -8 -8 -6 -13 -38 -15 -95 -1 -48 -4 -87 -7 -87 -3 0 -6 -33
-7 -73 -3 -112 -24 -217 -45 -217 -6 0 -8 -3 -5 -7 4 -3 1 -13 -5 -21 -15 -17
-34 -49 -47 -79 -6 -13 -16 -23 -22 -23 -7 0 -9 -3 -6 -6 3 -4 -2 -18 -13 -32
-11 -13 -17 -28 -14 -33 3 -5 0 -9 -7 -9 -7 0 -9 -3 -6 -7 4 -3 2 -12 -3 -19
-13 -14 -20 -43 -27 -103 -3 -34 -2 -41 9 -35 10 6 10 5 2 -7 -13 -16 8 -79
27 -79 5 0 8 -4 5 -9 -6 -9 66 -49 102 -56 12 -2 26 -6 31 -10 5 -3 13 -1 16
5 4 7 11 7 18 2 7 -5 19 -8 27 -7 8 1 38 5 65 9 28 4 69 10 93 15 23 5 42 5
42 1 0 -14 111 -62 131 -57 10 3 17 1 14 -3 -5 -7 99 -7 115 0 3 1 9 2 13 1 5
-1 27 4 50 11 58 16 57 16 106 -9 24 -12 47 -20 51 -18 5 3 10 0 12 -5 8 -24
248 -32 248 -8 0 5 5 6 10 3 6 -3 10 -1 10 5 0 6 4 9 9 6 10 -6 91 33 91 44 0
10 39 9 45 -1 4 -5 11 -7 16 -4 5 4 9 2 9 -2 0 -8 15 -12 58 -15 6 -1 12 -4
12 -7 0 -3 17 -5 37 -4 84 4 134 13 165 30 18 9 37 16 41 15 4 -1 19 -3 32 -4
14 -1 25 -5 25 -9 0 -6 122 -40 137 -38 5 1 10 0 13 -1 3 -1 21 -3 40 -4 19
-1 40 -5 47 -9 6 -4 14 -3 17 2 3 5 15 7 26 4 12 -3 20 0 20 6 0 7 4 9 10 6
14 -9 120 46 113 59 -3 6 -3 8 2 4 4 -4 17 -3 28 3 14 8 18 8 13 0 -4 -6 -1
-11 8 -11 8 0 36 -9 63 -21 50 -22 146 -28 180 -11 10 5 43 21 73 36 37 18 63
25 80 20 14 -3 33 -7 42 -7 9 -1 15 -4 13 -8 -7 -11 103 -36 149 -34 48 2 106
22 106 37 0 5 4 7 9 4 4 -3 17 10 27 29 10 19 22 35 25 35 4 0 10 7 13 16 4 9
2 13 -5 8 -8 -4 -8 -1 -1 12 13 25 9 128 -6 146 -6 8 -9 18 -5 21 3 4 1 7 -6
7 -7 0 -10 4 -7 9 3 4 -3 19 -14 31 -11 13 -20 26 -20 29 0 3 -11 19 -25 34
-14 15 -23 27 -20 27 3 0 -2 16 -10 36 -8 20 -13 40 -10 44 3 5 1 11 -5 15 -6
4 -8 10 -6 14 3 4 -1 27 -8 52 -7 24 -12 52 -10 62 1 9 -2 17 -7 17 -5 0 -8 3
-8 8 1 4 0 9 -1 12 -1 3 -3 21 -5 40 -1 19 -3 35 -4 35 -4 0 -12 40 -12 58 0
9 -4 17 -8 17 -5 0 -6 12 -3 26 3 15 1 24 -4 21 -5 -3 -9 9 -10 26 -1 34 -10
100 -18 132 -12 46 -23 90 -24 98 -1 4 -2 8 -3 10 -3 10 -9 46 -11 65 -1 12
-5 22 -8 22 -3 0 -7 8 -8 18 -2 17 -9 53 -12 62 -1 3 -3 10 -5 15 -1 6 -3 13
-5 18 -5 13 -7 22 -15 54 -4 18 -11 30 -16 28 -4 -3 -6 3 -4 14 2 11 -3 25
-11 32 -8 6 -14 20 -14 30 0 11 -4 19 -10 19 -5 0 -10 9 -10 19 0 11 -5 23
-10 26 -7 4 -7 13 0 26 6 11 15 17 21 14 5 -4 9 -1 9 4 0 6 7 11 15 11 7 0 18
6 22 13 4 7 20 20 36 30 46 29 94 88 127 154 32 65 41 101 42 168 0 59 -1 67
-11 61 -5 -4 -8 2 -6 11 5 32 -51 103 -103 130 -44 23 -131 16 -160 -13 -7 -8
-17 -12 -22 -9 -5 3 -10 2 -12 -3 -1 -4 -45 -27 -97 -51 -90 -41 -191 -63
-191 -40 0 5 -5 9 -10 9 -6 0 -20 9 -32 20 -12 11 -30 20 -40 20 -11 0 -17 4
-14 8 3 5 -28 23 -67 41 -40 18 -81 37 -92 42 -12 6 -27 11 -35 13 -8 2 -23 6
-32 10 -9 4 -22 9 -30 10 -7 1 -24 8 -38 16 -14 7 -25 12 -25 11 0 -5 -119 11
-129 16 -7 5 -90 10 -249 16 -32 1 -65 0 -73 -4z"/>
</g>
</svg>
